<svg width="187" height="70" viewBox="0 0 187 70" fill="none" xmlns="http://www.w3.org/2000/svg">
<path d="M12.684 53.384C14.308 53.972 15.974 54.966 17.682 56.366C19.418 57.738 20.286 59.796 20.286 62.54C20.286 64.332 19.642 65.648 18.354 66.488C17.094 67.3 15.806 67.79 14.49 67.958C13.202 68.098 11.844 68.168 10.416 68.168L6.342 68.252L3.78 68.294C3.332 68.294 3.024 68.154 2.856 67.874C2.688 67.594 2.604 67.202 2.604 66.698L2.646 57.374V55.358C2.646 54.294 2.688 53.328 2.772 52.46L2.898 47.336C2.898 46.748 2.912 45.88 2.94 44.732C2.968 43.556 2.996 42.814 3.024 42.506C3.052 42.282 3.066 41.89 3.066 41.33C3.066 40.35 3.024 39.65 2.94 39.23C2.912 39.174 2.898 39.104 2.898 39.02C2.898 38.852 3.052 38.726 3.36 38.642C3.64 38.558 4.382 38.446 5.586 38.306C6.79 38.138 7.882 38.054 8.862 38.054C11.522 38.054 13.622 38.586 15.162 39.65C16.73 40.714 17.514 42.73 17.514 45.698C17.514 48.386 16.702 50.486 15.078 51.998C14.35 52.614 13.552 53.076 12.684 53.384ZM8.106 51.242C8.106 51.522 8.092 51.774 8.064 51.998C8.036 52.194 8.022 52.348 8.022 52.46C8.022 52.628 8.036 52.74 8.064 52.796C8.092 52.824 8.176 52.838 8.316 52.838C8.876 52.838 9.744 52.684 10.92 52.376C12.096 52.068 13.23 51.41 14.322 50.402C15.414 49.394 15.96 47.938 15.96 46.034C15.96 44.018 15.61 42.52 14.91 41.54C14.21 40.56 13.328 39.944 12.264 39.692C11.228 39.412 9.898 39.272 8.274 39.272L8.19 41.96C8.134 43.976 8.106 45.474 8.106 46.454V51.242ZM9.408 67.37C12.152 67.37 14.21 66.936 15.582 66.068C16.954 65.172 17.64 63.982 17.64 62.498C17.64 58.746 16.03 56.198 12.81 54.854C11.382 54.322 9.772 54.07 7.98 54.098C7.952 54.182 7.938 54.294 7.938 54.434C7.91 54.574 7.896 54.896 7.896 55.4L7.98 58.088L8.064 60.356C8.064 60.748 8.05 61.028 8.022 61.196L7.98 62.288L8.064 64.766L8.148 66.698C8.148 67.034 8.204 67.244 8.316 67.328C8.456 67.384 8.638 67.412 8.862 67.412C9.114 67.384 9.296 67.37 9.408 67.37ZM32.9582 38.012C35.7582 38.012 37.8582 38.824 39.2582 40.448C40.6582 42.044 41.5542 43.948 41.9462 46.16C42.3382 48.344 42.5342 50.822 42.5342 53.594C42.5342 55.834 42.1982 58.144 41.5262 60.524C40.8542 62.876 39.8182 64.864 38.4182 66.488C37.0182 68.112 35.2962 68.924 33.2522 68.924C29.2482 68.924 26.5882 67.244 25.2722 63.884C23.9562 60.496 23.2982 56.87 23.2982 53.006C23.2982 49.282 23.8022 46.3 24.8102 44.06C25.8462 41.82 27.0922 40.252 28.5482 39.356C30.0322 38.46 31.5022 38.012 32.9582 38.012ZM32.9162 58.256C33.6722 58.256 34.2322 57.836 34.5962 56.996C34.9602 56.156 35.1422 55.148 35.1422 53.972C35.1422 52.852 34.9602 51.872 34.5962 51.032C34.2602 50.192 33.7982 49.772 33.2102 49.772C32.5102 49.772 31.9782 50.262 31.6142 51.242C31.2782 52.194 31.1102 53.23 31.1102 54.35C31.1102 55.498 31.2222 56.436 31.4462 57.164C31.6702 57.892 32.1602 58.256 32.9162 58.256ZM58.7439 41.834C58.7439 40.098 58.7579 39.02 58.7859 38.6C58.7859 38.068 58.9679 37.746 59.3319 37.634C59.6959 37.522 60.2279 37.466 60.9279 37.466C61.5439 37.466 62.3279 37.438 63.2799 37.382C64.2599 37.298 65.0159 37.214 65.5479 37.13C65.9399 37.102 66.2199 37.172 66.3879 37.34C66.5559 37.48 66.6399 37.732 66.6399 38.096C66.6399 38.208 66.6119 38.516 66.5559 39.02C66.4999 39.44 66.4719 42.226 66.4719 47.378V56.87C66.4719 58.298 66.4859 59.88 66.5139 61.616C66.5699 63.324 66.6259 64.864 66.6819 66.236C66.7379 67.608 66.7659 67.986 66.7659 67.37C66.7659 67.818 66.5419 68.042 66.0939 68.042C65.8979 68.042 65.7299 68.028 65.5899 68C65.4779 67.972 65.2539 67.958 64.9179 67.958C64.5819 67.958 64.0499 67.986 63.3219 68.042C62.5379 68.098 61.9919 68.126 61.6839 68.126C61.1519 68.126 60.7459 68.014 60.4659 67.79C60.2139 67.566 59.9479 67.16 59.6679 66.572L58.9539 65.144C58.1139 63.268 57.3719 61.798 56.7279 60.734C56.3639 60.118 55.4399 58.424 53.9559 55.652L52.1079 52.166V53.762V54.728C52.1079 54.952 52.0939 55.232 52.0659 55.568C52.0659 55.904 52.0799 56.282 52.1079 56.702C52.1079 58.158 52.1219 60.062 52.1499 62.414C52.2059 64.766 52.2759 66.18 52.3599 66.656C52.3879 66.796 52.4019 66.964 52.4019 67.16C52.4019 67.44 52.3459 67.622 52.2339 67.706C52.1219 67.762 51.9119 67.776 51.6039 67.748C51.1559 67.748 50.6239 67.776 50.0079 67.832C49.4199 67.888 48.8599 67.944 48.3279 68C47.9079 68.056 47.6279 67.986 47.4879 67.79C47.3759 67.594 47.3339 67.16 47.3619 66.488C47.3619 65.48 47.3199 63.702 47.2359 61.154C47.1239 58.494 47.0539 56.184 47.0259 54.224C47.0259 52.236 47.0679 50.22 47.1519 48.176C47.2079 45.6 47.2359 43.836 47.2359 42.884C47.2359 41.596 47.1939 40.658 47.1099 40.07C47.0539 39.566 47.0259 39.244 47.0259 39.104C47.0259 38.6 47.1099 38.264 47.2779 38.096C47.4459 37.9 47.6699 37.802 47.9499 37.802C48.0899 37.802 48.3699 37.816 48.7899 37.844C49.2099 37.844 49.8119 37.746 50.5959 37.55C50.9039 37.494 51.2119 37.466 51.5199 37.466C51.6879 37.466 51.9259 37.48 52.2339 37.508C52.5419 37.536 52.9479 37.55 53.4519 37.55C54.0959 37.55 54.6279 37.802 55.0479 38.306C55.4959 38.81 55.9719 39.524 56.4759 40.448L56.8959 41.204C57.2319 41.82 57.6379 42.478 58.1139 43.178L58.7439 44.144V41.834ZM80.2764 51.536L81.8304 51.578C83.1744 51.634 84.1124 51.662 84.6444 51.662C86.8284 51.662 88.4944 51.648 89.6424 51.62C91.0144 51.62 92.0644 51.606 92.7924 51.578V50.318L92.7504 48.008C92.7504 46.944 92.8064 44.76 92.9184 41.456L93.0024 38.516C93.0304 38.264 93.1844 38.138 93.4644 38.138L93.9264 38.18C94.0384 38.208 94.2484 38.222 94.5564 38.222C94.8924 38.222 95.1304 38.25 95.2704 38.306C95.5504 38.39 95.6904 38.53 95.6904 38.726L95.6064 39.062C95.5784 39.258 95.5364 39.636 95.4804 40.196C95.4244 40.728 95.3404 41.554 95.2284 42.674C95.1444 43.514 95.0744 45.432 95.0184 48.428C94.9624 51.396 94.9344 53.72 94.9344 55.4C94.9344 56.576 94.8784 58.62 94.7664 61.532L94.6824 64.304L94.6404 65.984C94.6404 66.404 94.6684 66.81 94.7244 67.202L94.7664 67.454C94.7664 67.622 94.6964 67.72 94.5564 67.748C94.4444 67.748 94.3744 67.748 94.3464 67.748C94.0664 67.804 93.5624 67.832 92.8344 67.832C92.6104 67.832 92.4984 67.692 92.4984 67.412L92.5404 61.28C92.5124 60.832 92.4984 60.37 92.4984 59.894C92.5264 59.39 92.5404 58.942 92.5404 58.55V56.786V53.678L89.1384 53.762C87.9344 53.79 86.3104 53.804 84.2664 53.804H80.3184C79.2544 53.804 78.4284 53.79 77.8404 53.762C77.8404 54.238 77.8264 54.602 77.7984 54.854C77.7424 55.75 77.7144 56.604 77.7144 57.416L77.6724 61.952C77.6724 64.164 77.7424 65.62 77.8824 66.32C77.9384 66.656 77.9664 66.866 77.9664 66.95C77.9664 67.342 77.8544 67.594 77.6304 67.706C77.4344 67.79 77.2104 67.832 76.9584 67.832C76.7344 67.804 76.5804 67.79 76.4964 67.79C75.5164 67.734 74.3964 67.776 73.1364 67.916C72.6604 67.972 72.3664 67.86 72.2544 67.58C72.1704 67.3 72.1284 66.908 72.1284 66.404C72.1564 65.9 72.1704 65.522 72.1704 65.27L72.0864 50.738L72.1704 39.86C72.1704 39.3 72.2264 38.95 72.3384 38.81C72.4784 38.642 72.6884 38.558 72.9684 38.558L73.8924 38.6C74.0324 38.6 74.3544 38.572 74.8584 38.516C74.9984 38.488 75.2364 38.474 75.5724 38.474L76.6644 38.516C76.8884 38.544 77.1964 38.558 77.5884 38.558C77.8964 38.558 78.0784 38.656 78.1344 38.852C78.2184 39.02 78.2464 39.202 78.2184 39.398C78.2184 39.594 78.2184 39.734 78.2184 39.818C78.2184 41.106 78.1624 42.772 78.0504 44.816L77.8824 48.974L77.7564 51.452L80.2764 51.536ZM118.271 40.532C118.271 41.176 118.215 41.498 118.103 41.498C117.935 41.498 117.739 41.484 117.515 41.456C117.319 41.4 117.067 41.372 116.759 41.372H110.039L104.831 41.33C104.663 41.33 104.033 41.372 102.941 41.456L101.975 41.54L101.891 42.674C101.863 43.094 101.849 43.752 101.849 44.648C101.849 45.096 101.877 45.684 101.933 46.412C101.989 47.084 102.017 47.574 102.017 47.882V49.562C102.017 50.01 102.031 50.36 102.059 50.612C102.311 50.64 102.689 50.654 103.193 50.654H104.873C105.041 50.654 105.377 50.626 105.881 50.57C106.609 50.514 107.239 50.486 107.771 50.486C107.995 50.486 108.779 50.528 110.123 50.612L111.047 50.654C111.271 50.654 111.593 50.64 112.013 50.612C112.433 50.556 112.839 50.528 113.231 50.528L114.617 50.57C115.345 50.626 115.849 50.654 116.129 50.654C116.437 50.654 116.647 50.64 116.759 50.612L117.011 50.57C117.207 50.57 117.347 50.64 117.431 50.78C117.515 50.892 117.543 51.004 117.515 51.116C117.487 51.312 117.473 51.564 117.473 51.872C117.473 52.152 117.459 52.404 117.431 52.628C117.403 52.852 117.361 52.992 117.305 53.048C117.249 53.076 117.081 53.09 116.801 53.09L115.121 52.922C113.021 52.726 111.649 52.628 111.005 52.628C108.625 52.628 106.875 52.67 105.755 52.754C105.307 52.81 104.817 52.838 104.285 52.838C103.753 52.838 103.417 52.838 103.277 52.838C102.745 52.838 102.353 52.824 102.101 52.796L101.975 53.468C101.919 53.972 101.891 54.42 101.891 54.812C101.891 55.148 101.919 55.54 101.975 55.988C102.031 56.436 102.059 56.828 102.059 57.164L102.101 62.162L102.059 64.262C102.031 64.514 102.017 64.864 102.017 65.312C102.381 65.34 102.913 65.354 103.613 65.354C104.201 65.382 105.111 65.396 106.343 65.396L108.611 65.438C109.087 65.466 109.815 65.48 110.795 65.48C111.383 65.48 112.153 65.452 113.105 65.396L114.869 65.354C115.541 65.354 116.101 65.368 116.549 65.396C116.997 65.424 117.333 65.438 117.557 65.438C117.781 65.438 117.907 65.48 117.935 65.564C117.991 65.648 118.019 65.83 118.019 66.11C118.019 66.306 118.005 66.516 117.977 66.74C117.949 66.936 117.935 67.16 117.935 67.412C117.935 67.608 117.865 67.748 117.725 67.832C117.585 67.888 117.361 67.916 117.053 67.916C116.745 67.916 116.493 67.902 116.297 67.874C115.541 67.79 114.015 67.748 111.719 67.748C110.319 67.748 109.311 67.762 108.695 67.79C108.219 67.818 107.435 67.832 106.343 67.832L102.437 67.79C101.989 67.762 101.457 67.748 100.841 67.748C100.449 67.748 100.183 67.706 100.043 67.622C99.9313 67.51 99.8753 67.342 99.8753 67.118L99.9173 66.446C99.9453 66.334 99.9593 66.208 99.9593 66.068C99.9593 65.984 99.9453 65.788 99.9173 65.48C99.8893 65.144 99.8753 64.542 99.8753 63.674C99.8753 62.834 99.8473 61.462 99.7913 59.558C99.7073 57.99 99.6653 56.478 99.6653 55.022C99.6653 54.406 99.7353 52.628 99.8753 49.688C99.9033 49.1 99.9313 48.512 99.9593 47.924C99.9873 47.336 100.001 46.804 100.001 46.328C100.001 43.08 99.9593 40.938 99.8753 39.902C99.7913 39.23 100.197 38.894 101.093 38.894C101.317 38.894 101.681 38.922 102.185 38.978C102.633 39.034 102.969 39.062 103.193 39.062L105.839 38.978C107.743 38.866 109.213 38.81 110.249 38.81C111.453 38.81 113.147 38.838 115.331 38.894C116.031 38.922 116.773 38.936 117.557 38.936C117.893 38.936 118.103 39.02 118.187 39.188C118.271 39.356 118.299 39.538 118.271 39.734C118.271 39.902 118.271 40.014 118.271 40.07V40.532ZM124.057 38.978C124.029 39.314 124.001 41.274 123.973 44.858C123.945 48.442 123.931 52.124 123.931 55.904C123.931 57.528 124.127 58.984 124.519 60.272C124.939 61.56 125.513 62.568 126.241 63.296C126.969 64.024 127.781 64.388 128.677 64.388C129.909 64.388 130.791 64.038 131.323 63.338C131.883 62.61 132.163 61.854 132.163 61.07L132.247 58.508C132.331 54.308 132.373 51.984 132.373 51.536C132.373 50.892 132.401 49.618 132.457 47.714C132.541 46.118 132.583 44.55 132.583 43.01C132.583 41.638 132.527 40.672 132.415 40.112C132.331 39.776 132.289 39.51 132.289 39.314C132.289 38.922 132.373 38.684 132.541 38.6C132.737 38.488 132.919 38.446 133.087 38.474C133.283 38.474 133.409 38.474 133.465 38.474C133.745 38.502 134.053 38.516 134.389 38.516C134.753 38.488 135.075 38.474 135.355 38.474H136.447C136.895 38.474 137.147 38.544 137.203 38.684C137.287 38.796 137.343 39.062 137.371 39.482C137.427 40.098 137.455 40.854 137.455 41.75C137.455 42.366 137.441 42.814 137.413 43.094C137.385 43.374 137.399 44.55 137.455 46.622C137.595 50.038 137.665 52.852 137.665 55.064V57.626C137.609 61.238 136.741 63.856 135.061 65.48C133.409 67.076 131.407 67.874 129.055 67.874C127.263 67.874 125.821 67.286 124.729 66.11C123.637 64.906 122.867 63.576 122.419 62.12C122.223 61.476 122.069 60.482 121.957 59.138C121.873 57.766 121.831 56.366 121.831 54.938C121.831 53.342 121.873 52.278 121.957 51.746C122.013 51.354 122.041 50.052 122.041 47.84C122.041 44.312 121.985 41.764 121.873 40.196C121.845 40.028 121.831 39.804 121.831 39.524C121.831 38.656 122.097 38.334 122.629 38.558L123.091 38.6C123.203 38.6 123.315 38.586 123.427 38.558C123.567 38.53 123.707 38.516 123.847 38.516C123.987 38.516 124.057 38.67 124.057 38.978ZM161.616 66.278C162.372 67.034 162.75 67.552 162.75 67.832C162.75 67.888 162.68 67.986 162.54 68.126C162.288 68.294 161.658 68.378 160.65 68.378C159.922 68.378 159.46 68.322 159.264 68.21C159.068 68.126 158.914 67.972 158.802 67.748C158.718 67.524 158.648 67.356 158.592 67.244C158.508 67.076 158.158 66.6 157.542 65.816C156.954 65.004 156.506 64.388 156.198 63.968C154.714 62.064 153.426 60.342 152.334 58.802C151.662 57.85 150.416 56.212 148.596 53.888L147.924 53.048L145.026 49.436L144.858 51.116C144.746 51.956 144.718 52.964 144.774 54.14C144.858 54.924 144.914 56.954 144.942 60.23C144.97 63.506 144.984 65.9 144.984 67.412C144.984 67.86 144.816 68.14 144.48 68.252C144.144 68.392 143.752 68.462 143.304 68.462C143.108 68.462 142.982 68.378 142.926 68.21C142.87 68.042 142.828 67.86 142.8 67.664C142.8 67.468 142.8 67.342 142.8 67.286C142.744 66.838 142.716 66.18 142.716 65.312C142.716 64.752 142.73 64.332 142.758 64.052C142.786 62.54 142.828 59.908 142.884 56.156C142.94 52.376 142.968 48.988 142.968 45.992C142.968 42.772 142.926 40.896 142.842 40.364C142.814 40.14 142.8 39.846 142.8 39.482C142.8 39.062 142.856 38.796 142.968 38.684C143.108 38.572 143.304 38.516 143.556 38.516C144.116 38.516 144.662 38.53 145.194 38.558L149.772 38.642C151.452 38.642 153.202 38.936 155.022 39.524C156.842 40.112 157.752 41.204 157.752 42.8C157.752 44.312 157.192 45.488 156.072 46.328C154.952 47.168 153.692 47.742 152.292 48.05C150.92 48.358 149.716 48.512 148.68 48.512C148.316 48.512 148.12 48.498 148.092 48.47C148.26 48.638 149.366 50.122 151.41 52.922C157.57 61.182 160.972 65.634 161.616 66.278ZM144.9 46.79C145.824 46.79 146.524 46.776 147 46.748C148.624 46.692 149.884 46.58 150.78 46.412C152.068 46.188 153.034 45.88 153.678 45.488C154.35 45.096 154.686 44.48 154.686 43.64C154.686 43.08 154.392 42.604 153.804 42.212C153.216 41.792 152.502 41.484 151.662 41.288C150.85 41.064 150.136 40.952 149.52 40.952C148.82 40.924 147.84 40.91 146.58 40.91H145.152L144.9 46.79Z" fill="#BC1F24"/>
<path d="M174.857 54.944C179.721 54.944 182.153 57.792 182.153 63.488C182.153 65.024 181.385 66.368 179.849 67.52C178.377 68.608 176.713 69.152 174.857 69.152C172.937 69.152 171.305 68.512 169.961 67.232C168.617 65.888 167.945 63.968 167.945 61.472C167.945 58.912 168.585 57.184 169.865 56.288C171.209 55.392 172.873 54.944 174.857 54.944Z" fill="#386641"/>
</svg>
